<?xml version="1.0" standalone="no"?>
<!DOCTYPE svg PUBLIC "-//W3C//DTD SVG 20010904//EN"
 "http://www.w3.org/TR/2001/REC-SVG-20010904/DTD/svg10.dtd">
<svg version="1.0" xmlns="http://www.w3.org/2000/svg"
 width="78.000000pt" height="68.000000pt" viewBox="0 0 78.000000 68.000000"
 preserveAspectRatio="xMidYMid meet">

<g transform="translate(0.000000,68.000000) scale(0.100000,-0.100000)"
fill="#000000" stroke="none">
<path d="M0 340 l0 -340 390 0 390 0 0 340 0 340 -390 0 -390 0 0 -340z m395
250 c-3 -5 -13 -10 -21 -10 -15 0 -20 -78 -8 -139 6 -31 7 -31 73 -31 l66 0
-3 82 c-3 62 -8 85 -20 95 -14 10 7 12 121 13 l137 0 0 -40 c0 -22 -4 -40 -10
-40 -5 0 -10 14 -10 30 0 30 -1 30 -55 30 l-55 0 0 -90 0 -90 45 0 c38 0 45 3
45 20 0 11 5 20 10 20 6 0 10 -21 10 -46 0 -27 -4 -43 -10 -39 -5 3 -10 13
-10 21 0 10 -12 14 -45 14 l-45 0 0 -99 c0 -95 1 -100 23 -104 12 -2 -21 -4
-73 -4 -52 -1 -87 1 -77 4 15 4 17 18 17 104 l0 99 -70 0 -70 0 0 -99 c0 -95
1 -100 23 -104 12 -2 -18 -5 -68 -5 -63 -1 -83 2 -67 8 18 8 22 17 22 50 l0
40 -50 0 -50 0 0 -84 c0 -78 2 -84 23 -92 17 -6 10 -8 -31 -11 -29 -2 -74 -2
-100 0 -38 3 -43 5 -24 11 22 8 22 9 22 222 0 184 -2 214 -15 214 -8 0 -15 5
-15 10 0 6 47 10 120 10 73 0 120 4 120 10 0 6 -6 10 -14 10 -8 0 -18 5 -21
10 -4 6 25 10 80 10 55 0 84 -4 80 -10z"/>
<path d="M280 567 c0 -7 14 -21 30 -30 l30 -18 0 30 c0 28 -3 31 -30 31 -18 0
-30 -5 -30 -13z"/>
<path d="M532 388 c3 -192 3 -193 26 -196 l22 -3 0 195 0 196 -25 0 -25 0 2
-192z"/>
<path d="M80 325 l0 -215 35 0 35 0 0 215 0 215 -35 0 -35 0 0 -215z"/>
<path d="M170 420 l0 -120 45 0 45 0 0 120 0 120 -45 0 -45 0 0 -120z"/>
<path d="M280 420 c0 -61 4 -110 9 -110 25 0 51 54 51 107 0 60 -11 87 -40
103 -19 10 -20 7 -20 -100z"/>
<path d="M307 296 c-24 -19 -28 -29 -25 -62 3 -34 6 -39 31 -42 l27 -3 0 65
c0 36 -1 66 -2 66 -2 -1 -16 -11 -31 -24z"/>
</g>
</svg>
